<?xml version="1.0" encoding="UTF-8"?>
<!DOCTYPE svg PUBLIC "-//W3C//DTD SVG 1.1//EN" "http://www.w3.org/Graphics/SVG/1.1/DTD/svg11.dtd">
<!-- Creator: CorelDRAW -->
<svg xmlns="http://www.w3.org/2000/svg" xml:space="preserve" width="2480px" height="629px" version="1.1" style="shape-rendering:geometricPrecision; text-rendering:geometricPrecision; image-rendering:optimizeQuality; fill-rule:evenodd; clip-rule:evenodd"
viewBox="0 0 2480 628.88"
 xmlns:xlink="http://www.w3.org/1999/xlink"
 xmlns:xodm="http://www.corel.com/coreldraw/odm/2003"
 enable-background="new 0 0 864 221">
 <defs>
  <style type="text/css">
   <![CDATA[
    .fil19 {fill:black;fill-rule:nonzero}
    .fil3 {fill:#1F1F1F;fill-rule:nonzero}
    .fil9 {fill:#333333;fill-rule:nonzero}
    .fil6 {fill:#3B3B3B;fill-rule:nonzero}
    .fil0 {fill:#3C3C3C;fill-rule:nonzero}
    .fil7 {fill:#4B4B4B;fill-rule:nonzero}
    .fil17 {fill:#5F5F5F;fill-rule:nonzero}
    .fil18 {fill:#666666;fill-rule:nonzero}
    .fil10 {fill:#7D7D7D;fill-rule:nonzero}
    .fil8 {fill:#8D8D8D;fill-rule:nonzero}
    .fil5 {fill:#A2A2A2;fill-rule:nonzero}
    .fil2 {fill:#B2B2B2;fill-rule:nonzero}
    .fil4 {fill:#BABABA;fill-rule:nonzero}
    .fil15 {fill:#C4C4C4;fill-rule:nonzero}
    .fil13 {fill:#CBCBCB;fill-rule:nonzero}
    .fil1 {fill:#D4D4D4;fill-rule:nonzero}
    .fil11 {fill:#DEDEDE;fill-rule:nonzero}
    .fil14 {fill:#E3E3E3;fill-rule:nonzero}
    .fil12 {fill:#EAEAEA;fill-rule:nonzero}
    .fil16 {fill:#F0F0F0;fill-rule:nonzero}
   ]]>
  </style>
 </defs>
 <g id="Слой_x0020_1">
  <metadata id="CorelCorpID_0Corel-Layer"/>
  <g>
   <path class="fil0" d="M2479.94 456.35c-19.11,1.03 -38.31,-0.24 -57.31,1.16 -14.74,1.09 -21.75,-6.12 -29.13,-17.03 -22.17,-32.77 -45.15,-64.98 -68.38,-97 -2.51,-3.46 -8.62,-5.79 -13.18,-5.99 -16.22,-0.72 -32.51,0.18 -48.74,-0.47 -9.98,-0.4 -13.38,3 -13.2,13.09 0.54,29.15 0.21,58.32 0.18,87.49 -0.01,19.5 -0.04,19.51 -20.16,19.54 -10.04,0.01 -20.09,-0.3 -30.12,0.06 -9.24,0.33 -12.91,-3.74 -12.77,-12.83 0.29,-17.69 0.06,-35.38 0.06,-53.07 0,-87.01 -0.01,-174.02 0.01,-261.03 0.01,-19.61 0.06,-19.65 20.2,-19.66 39.68,-0.02 79.37,-0.62 119.04,0.19 30.57,0.63 61.55,1.76 89.32,16.82 18.53,10.05 35.7,24.03 42.63,43.85 7.87,22.51 15.71,44.87 9.08,71.55 -7.1,28.54 -19.06,50.91 -42.42,67.54 -5.66,4.03 -12.45,6.75 -19.07,9.12 -11.36,4.07 -14.74,10.25 -7.15,20.64 20.2,27.67 40.26,55.44 60.59,83.02 5.81,7.88 12.32,15.23 19.51,22.75 1.01,2.99 1.01,6.06 1.01,10.26l0 0zm-115.26 -180.78c33.24,-6.84 49.96,-50.3 29.94,-81.05 -12.82,-19.7 -32.6,-21.93 -51.53,-23.6 -26.98,-2.37 -54.33,-0.44 -81.51,-0.84 -8.85,-0.13 -11.59,3.46 -11.5,11.9 0.31,29.57 0.31,59.14 0.02,88.71 -0.09,8.7 3.29,12 11.87,11.51 33.51,-1.91 67.52,4.68 102.71,-6.63z"/>
  </g>
  <path class="fil1" d="M-0.06 263.66c1.91,-3.16 5.12,-4.72 5.53,-6.82 15.5,-79.69 56.09,-143.94 119.49,-193.99 39.13,-30.87 84.09,-49.89 132.36,-60.46 14.59,-3.2 30.43,-0.7 46.03,0.9 -0.41,2.42 -1.15,3.13 -2.9,3.89 -15.7,10.44 -30.37,20.85 -45.87,31.73 -6.08,7.79 -11.32,15.11 -17.41,22.9 -6,9.74 -11.17,18.99 -17.17,28.77 -6.52,11.9 -14.3,22.77 -17.21,34.82 -2.34,9.66 -2.39,23.3 2.84,30.74 17.13,24.34 37.13,46.68 56.04,69.77 21.92,26.74 43.86,53.45 65.77,81.21 -0.13,3.1 -0.26,5.17 -1.55,7.1 -18.53,-4.98 -35.89,-9.82 -53.89,-15.38 -12.65,-9.8 -24.66,-18.86 -37.1,-28.83 -5.36,-9.6 -10.07,-18.44 -15.31,-26.95 -5.47,-8.91 -13.72,-11.66 -23.49,-8.25 -36.35,12.69 -72.61,25.64 -108.93,38.41 -26.17,9.2 -52.39,18.29 -81.39,28.4 0,11.51 0,26.13 -0.76,40.49 -2.2,-0.93 -3.64,-1.61 -5.08,-2.29 0,-24.94 0,-49.87 0,-76.16z"/>
  <path class="fil2" d="M304.2 629.73c-23.98,0 -47.96,0 -73.37,-1.05 -5.83,-4.24 -10.92,-6.81 -14.48,-10.77 -11.57,-12.88 -21.69,-27.18 -34.01,-39.26 -21.89,-21.46 -45.11,-41.56 -67.53,-62.49 -26.99,-25.18 -53.74,-50.62 -80.56,-75.97 -3.44,-3.25 -8.84,-6.19 -9.73,-10.08 -5.74,-25.35 -10.48,-50.92 -14.69,-76.31 2.03,0.27 3.19,0.42 4.53,1.54 10.65,12.6 21.13,24.25 32.06,36.75 14.46,9.95 28.48,19.03 43.34,28.61 7.01,3.89 13.18,7.3 19.35,11.76 1.23,4.06 1.71,7.81 3.82,9.95 18.65,18.95 37.47,37.76 56.53,56.31 7.75,7.55 16.53,14.03 24.26,21.59 18,17.58 35.32,35.86 53.53,53.21 17.09,16.27 35.05,31.61 52.39,47.62 2.25,2.07 3.07,5.68 4.56,8.59z"/>
  <path class="fil3" d="M605.68 471.93c-13.42,20.48 -24.88,42.63 -40.68,61.07 -30.28,35.32 -67.11,62.96 -110.21,81.51 -10.73,4.61 -21.63,8.81 -32.68,14.21 -25.16,1.01 -50.1,1.01 -77.31,0.37 2.38,-4.29 7.03,-7.93 12.72,-11.79 19.44,-16.99 37.85,-33.77 57.11,-50.96 7.81,-10.7 14.78,-20.99 22.53,-31.87 4.45,-9.01 8.11,-17.43 12.48,-26.48 2.6,-3.76 4.5,-6.88 6.81,-10.75 1.07,-2.31 1.72,-3.88 3.63,-5.42 5.01,-0.32 8.79,-0.52 12.52,-1.04 44.37,-6.26 88.72,-12.56 133.08,-18.85z"/>
  <path class="fil4" d="M356.48 617.52c-4.65,3.64 -9.3,7.28 -13.02,11.57 -11.58,0.64 -24.09,0.64 -37.93,0.64 -2.82,-2.91 -3.64,-6.52 -5.89,-8.59 -17.34,-16.01 -35.3,-31.35 -52.39,-47.62 -18.21,-17.35 -35.53,-35.63 -53.53,-53.21 -7.73,-7.56 -16.51,-14.04 -24.26,-21.59 -19.06,-18.55 -37.88,-37.36 -56.53,-56.31 -2.11,-2.14 -2.59,-5.89 -2.72,-9.87 11.78,2.19 22.46,5.36 33.32,9.21 2.01,0.97 3.82,1.24 6.78,1.5 4.18,0.27 7.22,0.56 10.53,1.62 2.99,0.93 5.7,1.09 9.7,1.21 9.01,0.19 16.72,0.42 24.51,1.63 6.78,8.44 13.07,16.33 20.24,23.3 29.03,28.2 58.38,56.09 87.51,84.2 3.73,3.61 6.66,8.03 10.3,11.75 5.84,5.96 12.49,11.2 17.83,17.57 8.92,10.65 17.07,21.96 25.55,32.99z"/>
  <path class="fil5" d="M8.96 353.69c5.08,25.5 9.82,51.07 15.56,76.42 0.89,3.89 6.29,6.83 9.73,10.08 26.82,25.35 53.57,50.79 80.56,75.97 22.42,20.93 45.64,41.03 67.53,62.49 12.32,12.08 22.44,26.38 34.01,39.26 3.56,3.96 8.65,6.53 13.13,10.77 -6.72,1.05 -13.52,1.05 -21.6,1.05 -2.96,-2.76 -3.98,-6.95 -6.41,-8.07 -47.96,-22.02 -90.54,-51.84 -124.23,-92.31 -36.62,-44 -64.28,-93.14 -71.99,-151.34 -0.21,-1.59 -1.97,-2.97 -4.16,-4.1 -1.15,-10.25 -1.15,-20.85 -1.15,-32.77 1.44,-0.64 2.88,0.04 5.41,1.72 1.92,4.28 2.77,7.55 3.61,10.83z"/>
  <g>
   <path class="fil0" d="M1799.41 457.14c-7.12,0 -13.06,-0.97 -18.57,0.17 -23.64,4.88 -34.95,-9.3 -46.19,-26.73 -18.84,-29.22 -38.99,-57.62 -59.56,-85.65 -3.24,-4.41 -11.48,-6.71 -17.61,-7.14 -14.75,-1.05 -29.62,-0.59 -44.44,-0.4 -10.2,0.13 -15.14,4.38 -14.83,15.9 0.79,28.67 -0.2,57.39 0.46,86.07 0.31,13.68 -4.49,19.24 -18.45,17.98 -10.91,-0.99 -22,-0.61 -32.97,-0.08 -10.61,0.52 -14.42,-3.89 -14.25,-14.36 0.45,-26.3 0.15,-52.6 0.15,-78.91 0,-77.47 -0.01,-154.95 0.01,-232.42 0.01,-19.69 1.29,-20.94 21.41,-20.95 43.05,-0.03 86.09,-0.26 129.13,0.08 29.5,0.23 59.55,3.37 84.67,18.69 25.97,15.84 44.88,40.41 47.61,72.25 2.13,24.83 3.64,50.09 -10.82,73.41 -12.21,19.7 -28.32,33.93 -48.59,44.23 -5.33,2.72 -10.42,5.91 -17.09,9.73 29.86,42.37 58.77,83.39 90.3,128.13 -12.49,0 -20.74,0 -30.37,0l0 0zm-104.22 -176.17c7.69,-2.34 15.48,-4.42 23.07,-7.08 23.21,-8.14 37.31,-37.15 32.51,-60 -6.96,-33.06 -30.78,-39.73 -59.8,-42.97 -26.43,-2.95 -53.45,-0.41 -80.2,-0.85 -9.38,-0.16 -12.56,3.34 -12.44,12.57 0.39,29.14 0.42,58.29 0.01,87.43 -0.14,9.6 3.76,12.37 12.78,12.2 27.22,-0.52 54.45,-0.44 84.07,-1.3z"/>
  </g>
  <path class="fil6" d="M2109.07 298.33c-0.45,11.88 -5.33,15.66 -16.42,15.51 -45.42,-0.64 -90.86,0.24 -136.27,-0.58 -13.6,-0.24 -17.4,4.34 -16.67,17.22 0.96,16.68 1.16,33.52 -0.04,50.17 -1.05,14.39 4.6,17.52 17.98,17.34 52.11,-0.69 104.24,0.13 156.35,-0.56 13.72,-0.18 19.5,4.05 18.48,17.93 -0.7,9.51 -0.52,19.13 -0.03,28.67 0.51,10.09 -3.98,13.28 -13.68,13.25 -76.98,-0.23 -153.96,-0.24 -230.95,-0.02 -11.45,0.03 -16.1,-3.97 -16.06,-15.99 0.32,-104.23 0.34,-208.47 0,-312.71 -0.04,-13.93 5.58,-18.23 18.91,-18.16 74.11,0.39 148.23,0.44 222.34,-0.04 13.73,-0.09 19.08,5.24 19.16,18.37 0.26,45.25 0.93,41.67 -39.45,41.46 -45.9,-0.24 -91.81,0.31 -137.7,-0.3 -12.1,-0.16 -15.69,3.86 -15.3,15.61 0.77,22.87 0.23,45.78 0.23,69.45 2.12,0.36 4.84,1.21 7.56,1.21 49.71,-0.12 99.43,-0.1 149.14,-0.77 9.13,-0.12 12.23,3.66 12.4,11.53 0.21,10.04 0.06,20.08 0.02,31.41z"/>
  <g>
   <path class="fil0" d="M1225.38 397c-0.92,1.34 -1.84,2.68 -3.79,5.15 -2.48,5.79 -3.93,10.44 -5.39,15.09 -4.57,9.71 -9.64,19.23 -13.57,29.19 -3,7.63 -7,11.41 -15.78,10.89 -12.86,-0.74 -25.8,0.01 -38.7,-0.29 -9.56,-0.22 -12.71,-4.59 -8.67,-13.98 16.68,-38.73 32.88,-77.66 49.64,-116.35 29.46,-67.96 59.17,-135.82 88.86,-203.68 3.61,-8.23 8.44,-14.13 19.3,-13.05 11.36,1.14 22.95,0.75 34.38,0.11 9.22,-0.53 13.59,3.62 17.08,11.69 29.95,69.38 60.25,138.62 90.44,207.91 15.88,36.44 32.07,72.75 47.41,109.41 6.27,14.97 3.76,17.83 -12.14,18.02 -10.51,0.13 -21.11,-0.8 -31.52,0.24 -12.95,1.28 -19.89,-5.9 -24.03,-15.98 -7.59,-18.45 -14.04,-37.37 -21.25,-58.27 -4.79,-5.35 -9.14,-10.96 -13.83,-11.26 -17.12,-1.1 -34.36,-0.44 -51.55,-0.44 -29.49,-0.01 -58.98,-0.01 -88.47,-0.01 0.01,0.93 0.01,1.85 0.01,2.77 4.65,0 9.3,0 13.95,0 38.69,0 77.37,-0.1 116.06,0.12 5.02,0.02 10.03,1.65 15.04,2.53 -45.62,0.13 -91.24,0.74 -136.85,0.06 -12.77,-0.19 -22.14,1.53 -25.95,16.94 -0.48,2.21 -0.58,2.7 -0.68,3.19l0 0zm65.18 -158.44c-1.34,3.82 -2.54,7.69 -4.06,11.44 -7.64,18.87 -14.47,38.14 -23.38,56.4 -5.96,12.23 -0.31,12.99 9.03,12.97 28.63,-0.04 57.26,0.05 85.89,-0.1 3.42,-0.02 6.83,-1.22 11.51,-2.11 -18.81,-43.49 -36.87,-85.23 -56.13,-129.75 -8.19,18.3 -15.12,33.79 -22.86,51.15z"/>
  </g>
  <path class="fil0" d="M984.83 167.23c-57.65,-0.43 -95.5,26.02 -109.49,81.49 -14.68,58.24 -0.64,106.06 53.83,142.18 17.28,11.46 39.16,11.63 61.04,10.62 27.68,-1.27 49.31,-12.2 69.93,-28.55 17.52,-13.9 17.78,-13.58 33.26,2.32 2,2.06 3.96,4.15 5.98,6.18 19.17,19.27 18.68,20.87 -1.65,38.54 -52.66,45.78 -114.89,51.4 -177.01,32.77 -69.46,-20.83 -114.31,-82.51 -117.12,-158.51 -1.74,-47.04 9.72,-89.25 39.9,-126.25 22.55,-27.64 51.94,-43.27 84.7,-55.4 25.96,-9.61 52.87,-6.85 78.5,-5.99 23.35,0.8 48.42,7.38 68.73,23.47 12.45,9.87 26.39,17.86 42.08,28.31 -14.74,17.25 -28.1,32.88 -41.81,48.93 -27.36,-22.69 -53.87,-41.99 -90.87,-40.11z"/>
  <path class="fil7" d="M643.77 287.6c1.45,16.77 3.41,33.53 4.09,50.33 0.23,5.76 -2.76,11.65 -5.71,18.57 -2.7,6.64 -3.96,12.18 -6.26,17.55 -26.9,2.58 -52.81,4.91 -78.61,8.19 -36.77,4.67 -73.46,10.04 -110.96,14.54 -16.79,-32.69 -41.45,-56.15 -73.23,-73.58 0.97,-3.64 1.69,-8.34 3.39,-8.73 7.81,-1.78 15.9,-2.27 23.87,-3.37 45.95,-6.34 91.85,-13.02 137.84,-18.99 29.09,-3.77 58.32,-6.5 87.79,-8.72 5.29,13.56 10.3,26.14 15.3,38.71 0.83,-0.16 1.66,-0.33 2.49,-0.5 0,-11.33 0,-22.67 0,-34z"/>
  <path class="fil8" d="M643.68 286.59c0.09,12.34 0.09,23.68 0.09,35.01 -0.83,0.17 -1.66,0.34 -2.49,0.5 -5,-12.57 -10.01,-25.15 -15.43,-39.71 -14.74,-18.53 -29.07,-35.07 -43.82,-52.47 -20.93,-16.48 -43.2,-28.68 -68.22,-36.68 -3.35,-7.31 -5.99,-14 -10.09,-19.62 -8.71,-11.9 -18.17,-23.25 -27.33,-34.83 -23.63,-29.87 -47.63,-59.46 -70.73,-89.73 -10.82,-14.19 -19.91,-29.7 -29.78,-44.61 4.99,0.43 9.98,0.86 16.7,2.41 4.22,2.48 6.61,4.15 9.25,5.13 23.09,8.53 46.39,16.57 69.27,25.64 5.9,2.34 11.73,6.89 15.63,11.94 38.08,49.33 76.06,98.74 113.32,148.69 10.84,14.54 28.51,24 32.39,43.88 1.18,6.02 4.55,11.6 6.92,17.38 0,0 0.6,1.24 0.47,3 -0.15,3.99 -0.16,6.22 -0.76,9.1 0.84,3.08 2.26,5.51 3.67,7.94 0.28,2 0.56,4.01 0.94,7.03z"/>
  <path class="fil5" d="M374.58 4.28c11.17,15.08 20.26,30.59 31.08,44.78 23.1,30.27 47.1,59.86 70.73,89.73 9.16,11.58 18.62,22.93 27.33,34.83 4.1,5.62 6.74,12.31 8.82,19.39 -26.11,1.02 -50.99,1.16 -76,0.21 -1.63,-4.5 -2.52,-8.38 -4.74,-11.22 -35.04,-44.86 -70.56,-89.35 -105.23,-134.5 -9.6,-12.5 -16.8,-26.86 -25.1,-40.37 0.73,-0.71 1.47,-1.42 2.57,-2.8 23.34,-0.52 46.29,-0.36 70.54,-0.05z"/>
  <path class="fil9" d="M606.49 471.36c-45.17,6.86 -89.52,13.16 -133.89,19.42 -3.73,0.52 -7.51,0.72 -12.81,0.5 -1.92,-1.35 -2.51,-1.89 -3.32,-3.12 0.31,-2.12 0.63,-3.31 1.91,-5.03 1.81,-17.42 2.66,-34.31 4.36,-51.97 45.77,-7.06 90.78,-12.83 135.56,-20.02 12.79,-2.05 28.21,0.06 36.64,-14.25 -3.32,13.36 -5.53,27.12 -10.28,39.94 -4.38,11.84 -11.47,22.68 -18.17,34.53z"/>
  <path class="fil10" d="M639.58 258.32c-2.59,-4.58 -5.96,-10.16 -7.14,-16.18 -3.88,-19.88 -21.55,-29.34 -32.39,-43.88 -37.26,-49.95 -75.24,-99.36 -113.32,-148.69 -3.9,-5.05 -9.73,-9.6 -15.63,-11.94 -22.88,-9.07 -46.18,-17.11 -69.27,-25.64 -2.64,-0.98 -5.03,-2.65 -8.21,-4.84 14.93,2.67 31.13,4.54 46.05,9.96 54.37,19.76 99.43,53.71 135.29,98.35 33.21,41.36 57.4,87.96 64.62,142.86z"/>
  <path class="fil0" d="M634.92 396.13c-8.41,15.07 -23.83,12.96 -36.62,15.01 -44.78,7.19 -89.79,12.96 -136.16,19.63 -2.62,-0.44 -3.79,-1.25 -5.32,-3.13 -3.48,-10.8 -6.6,-20.54 -9.72,-30.28 36.72,-5.08 73.41,-10.45 110.18,-15.12 25.8,-3.28 51.71,-5.61 79.35,-8.18 2.29,0.19 2.78,0.19 3.28,0.19 -0.08,2.15 -0.16,4.29 -1.28,7.82 -2,4.33 -2.94,7.27 -3.89,10.22 0.05,1.03 0.11,2.05 0.18,3.84z"/>
  <g>
   <path class="fil3" d="M2352.18 521.79c15.08,-2.45 29.47,-4 46.58,-5.83 0,23.48 2.14,44.41 -0.7,64.66 -2.14,15.3 -36.81,20.07 -46.58,7.57 -1.38,-1.75 -0.87,-4.98 -1.23,-7.53 2.73,-0.27 5.91,-1.58 8.12,-0.64 11.57,4.92 21.9,6.74 29.22,-8.95 -5.24,0.5 -9.21,0.62 -13.09,1.28 -20.69,3.51 -34.54,-14.78 -28.98,-33.61 1.61,-5.47 3.96,-10.71 6.66,-16.95l0 0zm17.91 38.9c11.99,0.23 18.78,-4.41 18.03,-17.66 -0.56,-9.96 -6.85,-13.55 -14.92,-13.28 -4.31,0.14 -10.81,3.45 -12.27,7 -3.61,8.77 -2.36,17.71 9.16,23.94z"/>
  </g>
  <path class="fil3" d="M823.25 556.65c9.53,0.95 18.26,3.81 26.97,3.76 5.12,-0.03 10.22,-4.69 15.32,-7.27 -3.93,-3.49 -7.4,-7.86 -11.91,-10.26 -6.65,-3.52 -14.96,-4.39 -20.86,-8.71 -5.12,-3.74 -11.44,-11.15 -10.82,-16.15 0.85,-6.84 6.33,-15.33 12.33,-18.89 14.36,-8.54 29.31,-4.51 44.61,10.8 -5.34,1.14 -9.06,2.55 -12.76,2.51 -2.61,-0.03 -5.49,-3.36 -7.75,-2.87 -6.73,1.45 -13.21,4.06 -19.78,6.22 4.78,3.44 9.49,6.98 14.35,10.31 8.26,5.64 19.04,9.45 24.35,17.09 8.46,12.15 -0.49,27.48 -15.52,28.93 -8.85,0.86 -18.38,1.43 -26.67,-1.03 -5.14,-1.52 -8.51,-8.98 -11.86,-14.44z"/>
  <path class="fil3" d="M1816.28 526.03c-4.26,13.25 -7.89,25.56 -12.67,37.42 -1.43,3.56 -6.19,8.22 -9.16,8.05 -3.37,-0.21 -7.58,-4.72 -9.39,-8.37 -3.26,-6.6 -5,-13.94 -10.63,-21.46 -2.52,7.17 -4.46,14.61 -7.78,21.38 -1.78,3.64 -6.88,9.09 -8.83,8.48 -3.93,-1.24 -8.25,-5.51 -9.71,-9.52 -4.98,-13.63 -8.78,-27.7 -13.88,-44.37 24.61,1.54 15.09,24.2 24.14,33.6 3.13,-8.38 6.02,-17.25 9.83,-25.7 1.35,-3 4.8,-6.73 7.54,-6.94 2.41,-0.19 6.06,3.57 7.6,6.43 3.72,6.93 6.54,14.34 10.53,23.4 3.54,-9.11 5.77,-17.26 9.77,-24.42 3.86,-6.92 9.42,-11.15 12.64,2.02z"/>
  <g>
   <path class="fil3" d="M2145.42 547.92c-12.54,2.73 -24.46,4.42 -37.42,6.25 9.06,18.75 23.5,1.25 34.25,5.1 -3.73,12.64 -15.12,16.75 -33.82,12.72 -12.56,-2.71 -21.37,-19.04 -18.58,-34.43 2.65,-14.64 18.54,-24.82 34.8,-22.29 14.45,2.25 22.75,14.52 20.77,32.65l0 0zm-25.69 -9.99c3.88,-0.48 7.75,-0.96 13.09,-1.63 -12.16,-12.28 -15.59,-12.19 -25.08,-0.09 3.6,0.63 6.66,1.18 11.99,1.72z"/>
  </g>
  <g>
   <path class="fil3" d="M1909.37 571.24c-4.75,-2.15 -11.36,-4.32 -11.47,-6.78 -0.86,-19.04 -0.71,-38.14 -0.23,-57.21 0.08,-3.28 3.24,-6.49 4.97,-9.73 1.41,0.25 2.81,0.5 4.22,0.75 0.94,6.12 1.89,12.25 2.24,14.53 12.99,4.24 25.68,5.85 35.2,12.2 9.44,6.31 9.18,26.45 2.82,38.74 -5.63,10.9 -15.95,8.5 -25.25,8.6 -3.78,0.05 -7.56,-0.81 -12.5,-1.1l0 0zm23.59 -39.1c-3.11,-0.97 -6.58,-3.31 -9.24,-2.61 -5.02,1.34 -12.93,3.72 -13.63,6.96 -1.48,6.86 -0.86,15.52 2.45,21.48 1.62,2.92 12.25,3.75 16.89,1.52 11.6,-5.56 9.71,-15.78 3.53,-27.35z"/>
  </g>
  <g>
   <path class="fil3" d="M2245.86 518.56c19.32,-6.26 34.15,0.97 39.67,17.26 4.09,12.05 -1.33,15.71 -11.93,16.35 -8,0.49 -15.99,1.04 -23.96,1.72 -0.48,0.04 -0.82,1.54 -3.32,6.59 8.93,0.11 16,0.03 23.05,0.36 3.68,0.18 7.32,1.09 10.98,1.67 -2.43,3.06 -4.25,7.65 -7.4,8.9 -14.68,5.84 -32.97,0.07 -38.92,-11.44 -7.94,-15.37 -3.97,-30.34 11.83,-41.41l0 0zm1.81 18.35c7.96,0 15.92,0 27.62,0 -11.94,-10.82 -20.05,-12.65 -27.62,0z"/>
  </g>
  <g>
   <path class="fil3" d="M1719.42 551.44c-11.74,0.37 -22.37,0.37 -36.37,0.37 8.64,11.44 15.38,11.59 23.84,8.65 3.28,-1.14 7.82,1.32 11.78,2.13 -3.18,3.22 -5.95,8.62 -9.6,9.29 -21.95,4.03 -35.12,-2.16 -40.17,-17.55 -4.27,-13.03 0.34,-24.69 9.93,-32.05 9.51,-7.29 21.87,-9.8 32.96,-0.49 9.3,7.82 14.74,16.86 7.63,29.65l0 0zm-11.79 -14.72c-7.35,-10.5 -14.77,-10.58 -23.66,0.93 7.88,0 14.87,0 23.66,-0.93z"/>
  </g>
  <g>
   <path class="fil3" d="M1544.22 552.2c7.05,18.24 20.37,9.78 35.73,6.05 -2.94,5.74 -3.76,9.96 -6.3,11.78 -7.28,5.23 -29.89,2.65 -36.4,-3.39 -10.01,-9.27 -12.03,-22.83 -5.23,-35.04 6.32,-11.36 23.2,-21.17 33.13,-15.5 8.25,4.71 14.62,14.9 18.68,24.06 3.12,7.04 -2.61,12.26 -11.23,12.05 -8.58,-0.2 -17.17,-0.01 -27.22,-0.26 -1.46,-0.27 -2.2,-0.31 -2.2,-0.31 0,0 1.04,0.56 1.04,0.56l0 0zm24.4 -17.62c-10.71,-11.03 -16.21,-10.4 -23.88,3.89 8.17,-0.71 15.59,-1.35 23.88,-3.89z"/>
  </g>
  <g>
   <path class="fil3" d="M907.45 570.5c-19.43,-18.04 -19.23,-36.6 -0.5,-51.08 11.58,-8.95 24.97,-4.87 32.89,2.04 7.27,6.34 12.51,20.18 11.24,29.73 -1.38,10.36 -8.57,22.81 -24.24,21.25 -6.12,-0.6 -12.27,-0.89 -19.39,-1.94l0 0zm12.7 -9.6c13.62,-2.18 21.23,-10.71 16.36,-20.12 -2.57,-4.98 -9.33,-10.6 -14.32,-10.72 -4.87,-0.11 -12.41,5.41 -14.32,10.23 -3.45,8.69 0.25,16.73 12.28,20.61z"/>
  </g>
  <g>
   <path class="fil3" d="M1828.48 549.29c7.72,-16.75 21.91,-14.62 35.84,-13.17 -0.09,-1.36 -0.18,-2.73 -0.27,-4.09 -10.54,0 -21.07,0 -33.79,0 5.79,-15.47 17.29,-17.63 26.39,-16 7.24,1.3 13.65,9.53 19.35,15.69 2.01,2.16 0.97,7.31 1.02,11.09 0.37,31.52 -2.17,33.83 -33.61,29.39 -12.62,-1.78 -17.63,-9.48 -14.93,-22.91l0 0zm18.72 13.6c5.69,-1.46 11.51,-2.61 16.93,-4.76 0.7,-0.28 -0.06,-8.18 -1.23,-8.49 -5.17,-1.39 -10.99,-2.31 -16.01,-1.09 -1.43,0.35 -0.97,8.48 0.31,14.34z"/>
  </g>
  <g>
   <path class="fil3" d="M1153.27 519.61c27.65,-10.84 47.05,4.51 43.54,31.5 -1.98,15.22 -11.67,21.98 -31.45,21.35 -14.58,-0.46 -22.88,-8.5 -23.11,-23.15 -0.17,-10.81 -2.15,-22.51 11.02,-29.7l0 0zm31.36 27.61c-3.44,-5.94 -5.52,-14.81 -10.62,-17.17 -9.25,-4.29 -19.12,1.05 -20.45,10.93 -0.8,5.94 4.41,16.05 9.71,18.69 8.36,4.19 17.77,1.17 21.36,-12.45z"/>
  </g>
  <path class="fil3" d="M2421.99 544.23c-2.82,-6.18 -5.57,-11.32 -6.95,-16.79 -0.65,-2.57 1.35,-5.8 2.15,-8.73 3.08,1.47 7.6,2.11 8.97,4.53 4.85,8.62 8.62,17.83 14.59,30.68 4.64,-10.65 8.72,-18.7 11.67,-27.14 3.04,-8.67 7.55,-11.58 16.04,-6.69 -7.66,19.54 -14.93,38.99 -22.92,58.16 -6.31,15.14 -17.15,19.46 -28.59,10.95 24.64,-11.91 11.48,-28.35 5.04,-44.97z"/>
  <path class="fil3" d="M2164.22 527.66c1.06,-3.76 1.91,-8.31 3.17,-8.43 11.5,-1.08 23.11,-2.09 34.6,-1.47 3.31,0.17 8.7,5.42 9.07,8.79 1.43,13.18 1.46,26.55 1.41,39.84 -0.01,1.79 -4.59,5.38 -5.13,5.04 -2.91,-1.81 -6.98,-4.32 -7.41,-7.1 -1.22,-7.94 -1.24,-16.12 -1.07,-24.2 0.16,-7.84 -2.71,-11.55 -10.91,-10.9 -7.65,0.6 -10.91,3.56 -9.84,11.87 0.97,7.5 0.89,15.36 -0.31,22.81 -0.48,2.98 -5.2,5.27 -8,7.88 -1.85,-2.83 -5.14,-5.58 -5.3,-8.51 -0.64,-11.42 -0.28,-22.89 -0.28,-35.62z"/>
  <path class="fil3" d="M1316.07 571.31c-14.54,4.71 -26.76,2.81 -37.62,-5.69 0.09,-1.82 0.18,-3.64 0.27,-5.46 5.9,0.32 11.81,0.96 17.7,0.88 4.66,-0.07 12.88,-0.05 13.34,-1.74 2.18,-8.03 -4.64,-6.59 -9.82,-8.83 -8.02,-3.48 -14.94,-10.61 -20.45,-17.66 -0.88,-1.13 7.34,-13.4 12.47,-14.32 8.97,-1.62 18.85,1.34 28.22,3.06 1.03,0.19 2.44,5.49 1.49,7.22 -0.92,1.67 -4.7,2.56 -7.15,2.44 -5.86,-0.29 -11.68,-1.39 -18.09,-0.66 9.58,9.72 28.82,8.5 28.97,26.64 0.04,4.54 -5.38,9.13 -9.33,14.12z"/>
  <path class="fil3" d="M1246.68 530.87c-18.97,-2.17 -20.87,-0.45 -20.99,17.41 -0.04,5.73 0.46,11.56 -0.47,17.15 -0.39,2.34 -3.85,4.16 -5.92,6.22 -1.64,-2.02 -4.62,-3.99 -4.69,-6.06 -0.42,-13.84 -0.3,-27.7 -0.1,-41.54 0.02,-1.65 1.5,-4.65 2.41,-4.69 12.77,-0.56 25.82,-2.24 38.19,-0.12 4.34,0.75 8.62,10.74 10.06,17.15 1.74,7.73 1.31,16.29 0.08,24.22 -0.63,4.04 -5.09,7.48 -7.82,11.19 -2.02,-3.63 -5.11,-7.07 -5.87,-10.96 -1.87,-9.64 -2.67,-19.49 -4.88,-29.97z"/>
  <path class="fil3" d="M1614.1 569.85c-8.89,4.13 -12.5,1.01 -12.44,-7.35 0.04,-5.25 -0.03,-10.49 -0.03,-15.74 0,-29.92 0,-29.92 28.91,-31.55 11.91,-0.67 19.6,6.35 19.8,18.4 0.16,10 0.43,20.05 -0.27,30.01 -0.2,2.8 -3.69,5.36 -5.67,8.03 -1.82,-2.82 -4.9,-5.51 -5.2,-8.48 -0.78,-7.56 1.02,-15.59 -0.85,-22.73 -1.15,-4.39 -7.21,-10.4 -11,-10.36 -3.86,0.05 -10.04,6.1 -10.97,10.43 -1.97,9.16 -1.17,18.9 -2.28,29.34z"/>
  <path class="fil3" d="M1031.83 559.38c2.18,-10.82 2.92,-21.1 4.63,-31.21 0.59,-3.47 3.59,-6.54 5.49,-9.79 1.93,3.21 5.31,6.34 5.53,9.67 0.71,10.95 0.05,21.99 0.37,32.98 0.22,7.67 -2.32,11.08 -10.64,11.31 -31,0.85 -39.37,4.05 -38.41,-43.05 0.2,-9.7 3.74,-13.25 14.41,-10.4 0,8.5 0.04,17.37 -0.01,26.24 -0.07,12.01 4.54,18.4 18.63,14.25z"/>
  <path class="fil3" d="M1397.88 525.25c10.67,-9.76 22.54,-11.87 35.39,-7.67 10.77,3.53 13.99,11.66 13.32,22.38 -0.54,8.54 0.08,17.16 -0.52,25.69 -0.15,2.1 -3.06,4.01 -4.69,6.01 -2.08,-2.05 -5.73,-3.94 -5.95,-6.17 -0.8,-8.02 -0.61,-16.16 -0.47,-24.25 0.14,-8.33 -3.47,-12.43 -12.01,-12 -8.1,0.41 -13.95,2.95 -13.74,12.51 0.15,6.66 0.59,13.41 -0.27,19.97 -0.46,3.48 -3.42,6.62 -5.25,9.92 -1.96,-3.15 -5.42,-6.21 -5.61,-9.46 -0.68,-11.87 -0.26,-23.8 -0.2,-36.93z"/>
  <path class="fil3" d="M1071.9 567.29c-0.77,-8.26 -0.46,-15.47 -1.42,-22.51 -0.96,-7.05 -3.19,-13.92 -5.51,-23.56 1.01,-2.22 3.08,-7.8 6.06,-12.85 1.7,-2.89 4.87,-4.91 7.39,-7.32 2.12,2.53 4.36,4.98 6.35,7.62 3.37,4.47 6.59,9.05 7.62,10.48 -2.85,12.19 -5.66,22.09 -7.21,32.17 -0.43,2.81 2.72,6.28 4.53,9.27 1.69,2.79 3.78,5.34 5.7,8 -3.29,1.28 -6.65,3.72 -9.87,3.57 -4.42,-0.22 -8.75,-2.4 -13.64,-4.87z"/>
  <path class="fil3" d="M967.35 551.68c0.02,-15.21 -0.46,-29.09 0.38,-42.88 0.23,-3.67 4.52,-7.09 6.94,-10.62 2.28,3.86 6.34,7.63 6.52,11.58 0.73,16.68 0.72,33.43 0.02,50.12 -0.17,4.06 -4.02,7.97 -6.17,11.95 -2.56,-3.88 -5.47,-7.58 -7.5,-11.71 -0.95,-1.93 -0.18,-4.7 -0.19,-8.44z"/>
  <path class="fil3" d="M2318.9 532.99c-1.49,10.24 -1.51,19.79 -3.01,29.09 -0.59,3.6 -4.55,6.65 -6.98,9.94 -2.3,-3.42 -6.3,-6.71 -6.59,-10.3 -0.87,-10.93 -0.22,-21.97 -0.35,-32.96 -0.09,-7.39 1.55,-12.58 10.68,-10.01 1.36,0.38 2.79,0.57 4.21,0.72 5.19,0.58 10.39,1.1 15.58,1.65 -4.22,3.69 -8.44,7.39 -13.54,11.87z"/>
  <path class="fil3" d="M1492.1 518.22c6.76,-0.23 12.39,-0.65 17.96,-0.22 2.45,0.19 4.75,2.11 7.12,3.24 -1.22,2.32 -2.1,6.35 -3.72,6.67 -14.02,2.83 -12.64,13.26 -12.42,23.41 0.12,5.23 0.27,10.58 -0.7,15.67 -0.37,1.96 -3.69,4.47 -5.85,4.66 -2.19,0.19 -6.65,-2.27 -6.6,-3.42 0.68,-16.63 1.95,-33.23 4.21,-50.01z"/>
  <path class="fil3" d="M1377.22 509.23c-1.24,15.12 -1.75,29.61 -2.22,44.09 -0.12,3.82 0.58,7.83 -0.39,11.41 -0.7,2.6 -3.52,4.63 -5.39,6.91 -1.9,-2.23 -5.39,-4.44 -5.43,-6.7 -0.25,-14.77 0.26,-29.55 0.5,-44.32 0.06,-3.45 -0.41,-6.98 0.2,-10.32 0.74,-4.09 2.36,-8.02 3.6,-12.02 3.3,3.43 6.59,6.87 9.13,10.95z"/>
  <path class="fil3" d="M1980.53 510.39c0,17.99 0.29,34.69 -0.26,51.37 -0.11,3.34 -3.43,6.59 -5.27,9.88 -2,-3.62 -5.59,-7.17 -5.72,-10.85 -0.62,-17.15 -0.53,-34.34 -0.08,-51.49 0.1,-3.6 2.78,-7.13 4.28,-10.69 2.34,3.49 4.69,6.98 7.05,11.78z"/>
  <path class="fil3" d="M1110.81 535.49c0.04,-4.2 -0.58,-7.27 0.29,-9.83 0.92,-2.68 3.26,-4.88 4.98,-7.3 2.04,2.58 5.7,5.09 5.82,7.76 0.61,12.77 0.52,25.6 0.01,38.39 -0.1,2.44 -3.25,4.76 -4.99,7.14 -2.01,-2.6 -5.53,-5.06 -5.77,-7.81 -0.76,-8.95 -0.32,-18 -0.34,-28.35z"/>
  <path class="fil3" d="M1389.61 377.35c-5.76,-1.42 -10.77,-3.05 -15.79,-3.07 -38.69,-0.22 -77.37,-0.12 -116.06,-0.12 -4.65,0 -9.3,0 -13.95,0 0,-0.92 0,-1.84 -0.01,-2.77 29.49,0 58.98,0 88.47,0.01 17.19,0 34.43,-0.66 51.55,0.44 4.69,0.3 9.04,5.91 13.57,10.21 -2.32,-0.63 -4.67,-2.4 -7.78,-4.7z"/>
  <path class="fil9" d="M640.62 373.61c-1.21,0.64 -1.7,0.64 -2.94,0.63 0.51,-5.56 1.77,-11.1 4.07,-16.94 0.55,5.02 0.07,10.34 -1.13,16.31z"/>
  <path class="fil3" d="M1217.06 416.69c0.6,-4.1 2.05,-8.75 4.36,-13.72 -0.6,4.18 -2.05,8.67 -4.36,13.72z"/>
  <path class="fil10" d="M643.08 278.83c-1.75,-1.7 -3.17,-4.13 -3.32,-7.13 2.13,-0.29 3.02,-0.08 3.92,0.07 -0.08,2.11 -0.17,4.22 -0.6,7.06z"/>
  <path class="fil7" d="M644.2 270.78c-1.42,0.84 -2.31,0.63 -3.86,0.27 -0.67,-2.31 -0.66,-4.54 -0.36,-7.86 1.76,1.48 3.25,4.04 4.22,7.59z"/>
  <path class="fil9" d="M635.63 391.87c0.06,-2.53 1,-5.47 2.86,-8.74 -0.05,2.56 -1.01,5.44 -2.86,8.74z"/>
  <path class="fil3" d="M1225.89 396.85c-0.41,-0.34 -0.31,-0.83 0.02,-2.04 0.54,-0.12 0.94,0.46 1.15,1.09 0.06,0.18 -0.42,0.53 -1.17,0.95z"/>
  <path class="fil11" d="M446.32 396.78c3.9,10.32 7.02,20.06 10.28,32.2 0.37,19.82 0.59,37.25 0.82,54.67 -0.32,1.2 -0.64,2.39 -1.57,5.26 -1.53,4.09 -2.44,6.51 -3.98,9.22 -1.8,0.99 -2.98,1.69 -4.62,1.54 -7.11,-6.88 -13.89,-12.77 -20.37,-18.99 -25.56,-24.49 -51.08,-49.03 -76.49,-73.67 -16.85,-16.35 -33.87,-32.19 -21.97,-59.91 2.9,-6.76 -0.7,-16.31 -1.3,-25.61 -0.02,-3.06 -0.04,-5.1 -0.06,-7.13 0.12,-2.07 0.25,-4.14 0.79,-7.43 0.42,-1.23 1.22,-1.64 1.25,-0.48 14.74,6.66 29.46,12.17 44.18,17.67 31.59,16.51 56.25,39.97 73.04,72.66z"/>
  <path class="fil2" d="M300.45 7.18c9.32,13.46 16.52,27.82 26.12,40.32 34.67,45.15 70.19,89.64 105.23,134.5 2.22,2.84 3.11,6.72 3.85,11.64 -15.44,8.93 -30.12,16.33 -45.03,22.69 -25,-33.56 -49.75,-66.08 -74.54,-98.57 -20.2,-26.46 -40.45,-52.89 -60.68,-79.33 14.68,-10.4 29.35,-20.81 45.05,-31.25z"/>
  <path class="fil12" d="M325.89 314.22c1.19,2.17 1.21,4.21 1.19,8.23 -0.95,4.24 -1.87,6.5 -4.03,8.76 -12.26,2.58 -23.68,4.09 -34.25,7.92 -41.59,15.1 -82.83,31.14 -124.37,46.39 -20.57,7.54 -41.71,13.57 -62.12,21.5 -5.37,2.08 -8.98,8.67 -13.4,13.19 -14.01,-9.09 -28.03,-18.17 -42.48,-29.17 2.18,-16.84 16.05,-16.4 25.97,-20.01 66.6,-24.22 133.46,-47.73 200.24,-71.47 17.36,4.84 34.72,9.68 53.25,14.66z"/>
  <path class="fil13" d="M329.07 305.29c0,0 -0.8,0.41 -1.21,0.6 -22.33,-26.53 -44.27,-53.24 -66.19,-79.98 -18.91,-23.09 -38.91,-45.43 -56.04,-69.77 -5.23,-7.44 -5.18,-21.08 -2.84,-30.74 2.91,-12.05 10.69,-22.92 17.95,-34.21 17.07,19.92 32.55,39.76 48.02,59.6 28.32,36.31 56.64,72.62 84.67,109.89 -8.31,15.51 -16.33,30.06 -24.36,44.61z"/>
  <path class="fil14" d="M272 298.84c-66.14,24.46 -133,47.97 -199.6,72.19 -9.92,3.61 -23.79,3.17 -26.42,19.15 -10.49,-10.59 -20.97,-22.24 -31.44,-35.88 6.75,-7.3 12.71,-14.72 20.36,-17.56 53.21,-19.75 106.66,-38.89 160.31,-57.39 12.82,-4.42 26.72,-5.71 40.12,-8.44 12.01,9.07 24.02,18.13 36.67,27.93z"/>
  <path class="fil11" d="M234.9 270.01c-12.97,3.63 -26.87,4.92 -39.69,9.34 -53.65,18.5 -107.1,37.64 -160.31,57.39 -7.65,2.84 -13.61,10.26 -20.53,16.6 -1.35,0.88 -2.51,0.73 -4.54,0.46 -1.71,-3.39 -2.56,-6.66 -3.72,-10.69 -0.33,-15.36 -0.33,-29.98 -0.33,-41.49 29,-10.11 55.22,-19.2 81.39,-28.4 36.32,-12.77 72.58,-25.72 108.93,-38.41 9.77,-3.41 18.02,-0.66 23.49,8.25 5.24,8.51 9.95,17.35 15.31,26.95z"/>
  <path class="fil15" d="M353.71 259.72c-28.31,-36.31 -56.63,-72.62 -84.95,-108.93 -15.47,-19.84 -30.95,-39.68 -47.18,-60.13 4.42,-9.86 9.59,-19.11 16.35,-28.23 25.9,31.67 50.22,63.18 74.49,94.73 20.22,26.28 40.37,52.61 60.15,79.81 -5.67,8.14 -10.95,15.4 -16.88,22.71 -0.66,0.06 -1.98,0.04 -1.98,0.04z"/>
  <path class="fil4" d="M372.97 236.08c-20.18,-26.31 -40.33,-52.64 -60.55,-78.92 -24.27,-31.55 -48.59,-63.06 -73.65,-95.21 4.49,-7.93 9.73,-15.25 15.81,-23.04 21.05,25.96 41.3,52.39 61.5,78.85 24.79,32.49 49.54,65.01 74.34,99.48 -5.8,7.58 -11.63,13.21 -17.45,18.84z"/>
  <path class="fil16" d="M89.76 420.7c3.57,-5.01 7.18,-11.6 12.55,-13.68 20.41,-7.93 41.55,-13.96 62.12,-21.5 41.54,-15.25 82.78,-31.29 124.37,-46.39 10.57,-3.83 21.99,-5.34 34.25,-6.74 -1.82,27.86 -10.98,52.09 -28.41,73.84 -10.76,7.85 -20.69,15.23 -31.56,23.05 -23.33,6.12 -45.72,11.78 -68.11,17.44 -7.71,-0.22 -15.42,-0.45 -25.1,-1.3 -4.4,-0.86 -6.85,-1.09 -9.3,-1.32 -3.04,-0.29 -6.08,-0.58 -10.81,-1.48 -3.27,-0.92 -4.84,-1.24 -6.42,-1.56 -10.67,-3.16 -21.35,-6.33 -33.13,-9.58 -7.27,-3.48 -13.44,-6.89 -20.45,-10.78z"/>
  <path class="fil15" d="M195.05 447.71c22.31,-6.65 44.7,-12.31 68.49,-17.59 23.92,21.38 46.67,42.15 68.9,63.45 20.48,19.61 40.16,40.06 60.74,59.55 5.88,5.58 13.67,9.15 20.59,13.64 -18.4,16.77 -36.81,33.55 -56.25,50.54 -9.52,-10.81 -17.67,-22.12 -26.59,-32.77 -5.34,-6.37 -11.99,-11.61 -17.83,-17.57 -3.64,-3.72 -6.57,-8.14 -10.3,-11.75 -29.13,-28.11 -58.48,-56 -87.51,-84.2 -7.17,-6.97 -13.46,-14.86 -20.24,-23.3z"/>
  <path class="fil13" d="M414.63 566.34c-7.78,-4.07 -15.57,-7.64 -21.45,-13.22 -20.58,-19.49 -40.26,-39.94 -60.74,-59.55 -22.23,-21.3 -44.98,-42.07 -67.96,-63.9 9.47,-8.21 19.4,-15.59 31.15,-23.27 4.89,1.86 8.26,3.7 10.96,6.24 19.95,18.74 39.83,37.57 59.61,56.49 8.85,8.48 17.21,17.48 26.17,25.84 14.51,13.54 29.32,26.74 44,40.09 -6.96,10.29 -13.93,20.58 -21.74,31.28z"/>
  <path class="fil1" d="M437.16 534.47c-15.47,-12.76 -30.28,-25.96 -44.79,-39.5 -8.96,-8.36 -17.32,-17.36 -26.17,-25.84 -19.78,-18.92 -39.66,-37.75 -59.61,-56.49 -2.7,-2.54 -6.07,-4.38 -10.12,-6.71 15.6,-21.45 24.76,-45.68 27.8,-73.54 0.94,-3.44 1.86,-5.7 2.82,-8.91 0.63,7.31 4.23,16.86 1.33,23.62 -11.9,27.72 5.12,43.56 21.97,59.91 25.41,24.64 50.93,49.18 76.49,73.67 6.48,6.22 13.26,12.11 20.46,20.36 0.9,4 1.24,5.79 1.59,7.58 -3.66,8.42 -7.32,16.84 -11.77,25.85z"/>
  <path class="fil13" d="M449.64 507.99c-1.06,-1.16 -1.4,-2.95 -1.84,-6.11 1.09,-2.06 2.27,-2.76 4.96,-3.84 2.1,-0.27 2.68,-0.16 3.27,-0.05 -1.89,3.12 -3.79,6.24 -6.39,10z"/>
  <path class="fil17" d="M456.45 497.24c-1.01,0.64 -1.59,0.53 -3.06,0.51 0.02,-2.33 0.93,-4.75 2.46,-7.91 1.43,-0.45 2.02,0.09 2.69,1.41 -0.37,2.11 -1.02,3.68 -2.09,5.99z"/>
  <path class="fil15" d="M160.84 444.87c2.18,-0.54 4.63,-0.31 7.74,0.58 -2.04,0.51 -4.75,0.35 -7.74,-0.58z"/>
  <path class="fil15" d="M143.53 441.75c1.39,-0.37 2.96,-0.05 5.08,0.89 -1.26,0.35 -3.07,0.08 -5.08,-0.89z"/>
  <path class="fil17" d="M353.43 260.68c0.28,-0.96 1.6,-0.94 3.52,-1.04 36.86,-4.31 71.83,-8.3 106.73,-12.8 39.63,-5.11 79.19,-10.68 118.78,-16.06 14.32,16.54 28.65,33.08 43.1,50.63 -29.05,4.2 -58.28,6.93 -87.37,10.7 -45.99,5.97 -91.89,12.65 -137.84,18.99 -7.97,1.1 -16.06,1.59 -23.87,3.37 -1.7,0.39 -2.42,5.09 -3.39,8.73 -14.53,-4.58 -29.25,-10.09 -43.99,-16.75 8,-15.71 16.02,-30.26 24.33,-45.77z"/>
  <path class="fil18" d="M582.03 229.92c-39.16,6.24 -78.72,11.81 -118.35,16.92 -34.9,4.5 -69.87,8.49 -106.08,12.75 4.02,-7.22 9.3,-14.48 14.97,-22.62 6.22,-6.52 12.05,-12.15 18.08,-18.68 14.88,-8.32 29.56,-15.72 45.12,-23.55 25.78,-0.57 50.66,-0.71 76.81,-0.62 26.25,7.12 48.52,19.32 69.45,35.8z"/>
  <path class="fil17" d="M458.38 483.13c-1.19,-16.9 -1.41,-34.33 -1.42,-53.09 1.39,-0.52 2.56,0.29 4.33,1.49 -0.25,17.29 -1.1,34.18 -2.91,51.6z"/>
  <path class="fil19" d="M1544.21 552.21c0.01,-0.01 -1.03,-0.57 -1.03,-0.57 0,0 0.74,0.04 0.87,0.32 0.13,0.29 0.15,0.27 0.16,0.25z"/>
  <g>
   <path class="fil3" d="M2050.03 548.29c-12.54,2.73 -24.46,4.42 -37.42,6.26 9.06,18.74 23.5,1.25 34.25,5.09 -3.73,12.64 -15.11,16.75 -33.82,12.72 -12.55,-2.71 -21.37,-19.04 -18.58,-34.43 2.65,-14.64 18.55,-24.81 34.8,-22.28 14.46,2.24 22.75,14.51 20.77,32.64l0 0zm-25.69 -9.99c3.88,-0.48 7.76,-0.96 13.09,-1.63 -12.16,-12.28 -15.59,-12.19 -25.07,-0.09 3.59,0.63 6.66,1.18 11.98,1.72z"/>
  </g>
 </g>
</svg>
